<?xml version="1.0" encoding="UTF-8"?>
<svg id="Layer_1" data-name="Layer 1" xmlns="http://www.w3.org/2000/svg" viewBox="0 0 121.32 64.5">
  <defs>
    <style>
      .cls-1 {
        fill: #fff;
      }

      .cls-1, .cls-2, .cls-3 {
        stroke-width: 0px;
      }

      .cls-2 {
        fill: #f58219;
      }

      .cls-3 {
        fill: #4e7896;
      }
    </style>
  </defs>
  <path class="cls-1" d="m64.5,0h56.82v64.5H0C0,28.9,28.9,0,64.5,0Z"/>
  <g>
    <path class="cls-3" d="m71.2,45.83s-2.27,1.16,1.58,1.49c4.64.5,7.11.41,12.24-.41,1.03.53,2.12.98,3.26,1.33-11.54,4.15-26.15-.25-17.07-2.41h0Zm-1.48-5.4s-2.47,1.58,1.38,1.91c5.03.41,8.98.5,15.79-.66.66.57,1.47.99,2.37,1.24-13.91,3.49-29.51.33-19.54-2.49h0Zm27.24,9.46s1.68,1.16-1.87,2.08c-6.61,1.66-27.73,2.16-33.65,0-2.07-.75,1.87-1.83,3.14-1.99,1.28-.25,1.98-.25,1.98-.25-2.27-1.33-15.1,2.74-6.51,3.9,23.59,3.24,43.03-1.41,36.91-3.74h.01Zm-24.69-15.11s-10.76,2.16-3.85,2.91c2.96.33,8.78.25,14.21-.08,4.44-.33,8.88-.99,8.88-.99,0,0-1.58.58-2.67,1.16-10.95,2.41-31.97,1.33-25.95-1.16,5.13-2.08,9.38-1.83,9.38-1.83h0Zm19.25,9.05c11.05-4.82,5.92-9.46,2.37-8.88-.89.17-1.28.33-1.28.33,0,0,.3-.5.99-.66,7.01-2.08,12.53,6.23-2.27,9.46,0,0,.1-.08.2-.25h0Zm-18.16,13.12c10.66.58,26.94-.33,27.33-4.57,0,0-.79,1.66-8.78,2.91-9.08,1.41-20.33,1.24-26.94.33,0,0,1.38.99,8.39,1.33h0Z"/>
    <path class="cls-2" d="m84.81,7.39s6.12,5.23-5.82,13.12c-9.57,6.39-2.17,10.04,0,14.2-5.63-4.23-9.67-7.97-6.91-11.46,4.04-5.15,15.2-7.62,12.73-15.86Zm-3.14,23.83c2.86,2.74-.79,5.23-.79,5.23,0,0,7.3-3.15,3.95-7.06-3.06-3.74-5.43-5.56,7.4-11.79,0,0-20.23,4.23-10.56,13.61Z"/>
  </g>
</svg>