<?xml version="1.0" encoding="UTF-8"?>
<svg id="Layer_1" data-name="Layer 1" xmlns="http://www.w3.org/2000/svg" viewBox="0 0 121.32 64.5">
  <defs>
    <style>
      .cls-1 {
        fill: #00678c;
      }

      .cls-1, .cls-2 {
        fill-rule: evenodd;
      }

      .cls-1, .cls-2, .cls-3 {
        stroke-width: 0px;
      }

      .cls-2 {
        fill: #ce8b2c;
      }

      .cls-3 {
        fill: #fff;
      }
    </style>
  </defs>
  <path class="cls-3" d="m64.5,0h56.82v64.5H0C0,28.9,28.9,0,64.5,0Z"/>
  <g>
    <path class="cls-1" d="m17.36,52.44h3.12v-12.37l4.88,10.79c.55,1.3,1.35,1.78,2.88,1.78s2.28-.48,2.85-1.78l4.85-10.79v12.37h3.15v-12.37c0-1.2-.48-1.78-1.49-2.09-2.38-.72-3.96-.1-4.68,1.51l-4.78,10.67-4.61-10.67c-.7-1.61-2.31-2.23-4.71-1.51-.99.31-1.47.89-1.47,2.09v12.37s0,0,0,0Zm24.33-10.06h3.15v6.8c-.02.38.12,1.25,1.83,1.27.89.02,6.77,0,6.82,0v-8.12h3.15v11.12c0,2.74-3.39,3.34-4.97,3.36h-9.9v-2.09h9.92c2.02-.22,1.78-1.22,1.78-1.56v-.82h-6.65c-3.1-.02-5.09-1.39-5.12-2.95v-7.02h0Zm67.5-7.88c-1.92-.05-3.41.14-4.66.67-.36.15-.94.15-.98.6.19.19.22.5.38.77.29.48.79,1.13,1.25,1.46.51.38,1.01.77,1.54,1.11.94.58,1.99.91,2.91,1.49.53.34,1.06.77,1.59,1.13.27.19.43.51.77.62v-.07c-.17-.22-.22-.53-.38-.77-.24-.24-.48-.46-.72-.7-.7-.94-1.56-1.75-2.5-2.43-.77-.53-2.45-1.25-2.76-2.14l-.05-.05c.53-.05,1.15-.24,1.66-.38.82-.22,1.56-.17,2.4-.38.38-.1.77-.22,1.15-.34v-.22c-.43-.43-.74-1.01-1.2-1.42-1.22-1.06-2.57-2.09-3.96-2.95-.74-.48-1.71-.79-2.5-1.2-.29-.14-.77-.22-.94-.46-.43-.53-.67-1.22-.99-1.85-.7-1.32-1.37-2.79-1.97-4.18-.43-.94-.7-1.87-1.22-2.74-2.47-4.08-5.17-6.56-9.3-8.98-.89-.5-1.95-.72-3.07-.99l-1.8-.1c-.38-.17-.77-.62-1.11-.84-1.37-.86-4.9-2.74-5.91-.26-.65,1.56.96,3.1,1.51,3.89.41.55.94,1.18,1.23,1.8.16.41.22.84.38,1.27.38,1.06.74,2.23,1.25,3.22.27.5.55,1.03.89,1.49.19.26.53.38.6.82-.34.48-.36,1.2-.55,1.8-.87,2.71-.53,6.08.7,8.07.38.6,1.29,1.92,2.52,1.42,1.08-.43.84-1.8,1.15-3,.07-.29.02-.48.17-.67v.05l.99,1.99c.74,1.18,2.04,2.4,3.12,3.22.58.43,1.03,1.18,1.75,1.44v-.07h-.05c-.14-.22-.36-.31-.55-.48-.43-.43-.91-.96-1.25-1.44-1.01-1.34-1.9-2.83-2.69-4.37-.38-.74-.72-1.56-1.03-2.31-.15-.29-.15-.72-.38-.86-.36.53-.89.99-1.15,1.63-.46,1.03-.5,2.31-.67,3.63-.1.02-.05,0-.1.05-.77-.19-1.03-.99-1.32-1.66-.72-1.71-.84-4.44-.22-6.41.17-.5.89-2.09.6-2.57-.15-.46-.62-.72-.89-1.08-.31-.46-.65-1.03-.86-1.54-.58-1.35-.86-2.83-1.49-4.18-.29-.62-.79-1.27-1.2-1.85-.46-.65-.96-1.11-1.32-1.87-.12-.26-.29-.7-.1-.99.05-.19.14-.26.34-.31.31-.26,1.2.07,1.51.22.89.36,1.63.7,2.38,1.2.34.24.7.7,1.13.82h.51c.77.17,1.63.05,2.35.26,1.27.41,2.43,1.01,3.46,1.66,3.15,1.99,5.74,4.83,7.49,8.22.29.55.41,1.06.67,1.63.51,1.18,1.13,2.38,1.63,3.53.51,1.13.99,2.28,1.71,3.22.36.5,1.8.77,2.45,1.03.48.22,1.22.41,1.66.67.82.5,1.63,1.08,2.4,1.63.38.29,1.59.89,1.66,1.37h0Zm-24.5-20.87c-.33,0-.66.04-.98.12v.05h.05c.19.38.53.65.77.99l.55,1.15.05-.05c.34-.24.51-.62.51-1.2-.14-.17-.17-.34-.29-.5-.14-.24-.46-.36-.65-.55h0Z"/>
    <path class="cls-2" d="m59.03,52.44h9.03c1.06,0,2.07-.22,2.88-.6,1.37-.62,2.02-1.46,2.02-2.57v-2.31c0-.89-.74-1.73-2.23-2.31-.77-.29-1.73-.46-2.67-.46h-3.8c-1.27,0-1.87-.38-2.04-1.22-.02-.1-.02-.19-.02-.29v-1.42c0-.07,0-.17.02-.26.17-.65.5-.82,1.62-.94h9.25v-2.09h-8.79c-1.27,0-1.95.07-2.55.26-1.85.58-2.67,1.49-2.67,3.1v1.83c0,1.42,1.59,2.62,4.28,2.91.29.02.6.02.91.02h3.24c.12,0,.24,0,.34.02.99.1,1.42.26,1.71.62.19.19.24.36.24.58v1.83c0,.22-.14.51-.43.74s-.75.41-1.35.43c-.12,0-.19.02-.31.02h-8.68v2.09Zm33.48-3.63c0,2.14,1.62,3.34,4.83,3.58.31.02.6.05.91.05h8.17v-2.09h-8.24c-1.83,0-2.52-.46-2.52-1.56v-10.81h-3.15v10.83h0Zm-17.56.1v-7.45c0-1.9,1.34-3.05,3.96-3.41.29-.02.58-.05.84-.05h5.96c.31,0,.58.02.89.05,2.62.36,3.94,1.51,3.94,3.41v7.45c0,1.54-.55,2.35-1.85,2.91l3.07,2.79h-3.63l-2.5-2.26-2.52.14h-3.36c-.62,0-1.23-.08-1.83-.24-1.99-.55-2.98-1.61-2.98-3.34Zm3.39-.17c0,.1.05.19.07.31.17.86.98,1.34,2.23,1.34h2.84l-2.59-2.35h3.63l2.28,2.07c.43-.24.7-.58.79-1.01.02-.1.02-.22.02-.31v-7.13c0-.1,0-.19-.02-.29-.17-.82-.98-1.27-2.21-1.27h-4.73c-1.39,0-2.31.6-2.31,1.56v7.09Z"/>
  </g>
</svg>